<svg width="24" height="23" viewBox="0 0 24 23" fill="none" xmlns="http://www.w3.org/2000/svg">
<path d="M12 0C8.74 0 8.333 0.014375 7.053 0.069C5.775 0.1265 4.905 0.319125 4.14 0.60375C3.351 0.897 2.681 1.29087 2.014 1.93008C1.347 2.56929 0.935 3.21042 0.63 3.9675C0.333 4.70062 0.131 5.53437 0.072 6.75912C0.012 7.98579 0 8.37583 0 11.5C0 14.6242 0.015 15.0142 0.072 16.2409C0.132 17.4647 0.333 18.2994 0.63 19.0325C0.936 19.7877 1.347 20.4307 2.014 21.0699C2.681 21.7082 3.35 22.104 4.14 22.3962C4.906 22.6799 5.776 22.8745 7.053 22.931C8.333 22.9885 8.74 23 12 23C15.26 23 15.667 22.9856 16.947 22.931C18.224 22.8735 19.095 22.6799 19.86 22.3962C20.648 22.103 21.319 21.7082 21.986 21.0699C22.652 20.4307 23.065 19.7905 23.37 19.0325C23.666 18.2994 23.869 17.4647 23.928 16.2409C23.988 15.0142 24 14.6242 24 11.5C24 8.37583 23.985 7.98579 23.928 6.75912C23.868 5.53533 23.666 4.69967 23.37 3.9675C23.064 3.21137 22.652 2.56929 21.986 1.93008C21.319 1.29087 20.651 0.896042 19.86 0.60375C19.095 0.319125 18.224 0.125542 16.947 0.069C15.667 0.0115 15.26 0 12 0ZM12 2.07C15.203 2.07 15.585 2.08533 16.85 2.13804C18.02 2.19075 18.655 2.37667 19.077 2.53575C19.639 2.74371 20.037 2.99287 20.459 3.39442C20.878 3.79692 21.138 4.17929 21.355 4.71788C21.519 5.12229 21.715 5.73083 21.768 6.85208C21.825 8.06533 21.838 8.4295 21.838 11.5C21.838 14.5705 21.823 14.9356 21.764 16.1479C21.703 17.2692 21.508 17.8777 21.343 18.2821C21.119 18.8207 20.864 19.2021 20.444 19.6065C20.025 20.0081 19.62 20.2572 19.064 20.4652C18.644 20.6224 17.999 20.8102 16.829 20.861C15.555 20.9156 15.18 20.9281 11.97 20.9281C8.759 20.9281 8.384 20.9137 7.111 20.8572C5.94 20.7987 5.295 20.6118 4.875 20.4537C4.306 20.239 3.915 19.9947 3.496 19.5922C3.075 19.1906 2.806 18.8025 2.596 18.2697C2.431 17.8672 2.237 17.249 2.176 16.1278C2.131 14.9203 2.115 14.5475 2.115 11.4856C2.115 8.42279 2.131 8.04904 2.176 6.82717C2.237 5.70592 2.431 5.08875 2.596 4.68625C2.806 4.14 3.075 3.76625 3.496 3.36279C3.915 2.96125 4.306 2.7025 4.875 2.50221C5.295 2.34312 5.926 2.15625 7.096 2.09875C8.371 2.05563 8.746 2.04125 11.955 2.04125L12 2.07ZM12 5.59475C8.595 5.59475 5.838 8.23975 5.838 11.5C5.838 14.7631 8.598 17.4053 12 17.4053C15.405 17.4053 18.162 14.7603 18.162 11.5C18.162 8.23688 15.402 5.59475 12 5.59475ZM12 15.3333C9.79 15.3333 8 13.6179 8 11.5C8 9.38208 9.79 7.66667 12 7.66667C14.21 7.66667 16 9.38208 16 11.5C16 13.6179 14.21 15.3333 12 15.3333ZM19.846 5.36187C19.846 6.12375 19.2 6.74187 18.406 6.74187C17.611 6.74187 16.966 6.12279 16.966 5.36187C16.966 4.60096 17.612 3.98283 18.406 3.98283C19.199 3.98187 19.846 4.60096 19.846 5.36187Z" fill="#70748A"/>
</svg>
