<svg width="23" height="23" viewBox="0 0 23 23" fill="none" xmlns="http://www.w3.org/2000/svg">
<path fill-rule="evenodd" clip-rule="evenodd" d="M19.5369 3.33933C17.3871 1.18705 14.5282 0.00124797 11.4822 0C5.20606 0 0.0979422 5.1077 0.0954925 11.3858C0.0946143 13.3927 0.618945 15.3515 1.61542 17.0783L0 22.9787L6.03623 21.3953C7.69936 22.3025 9.57191 22.7806 11.4776 22.7813H11.4823C11.4819 22.7813 11.4826 22.7813 11.4823 22.7813C17.7577 22.7813 22.8663 17.6731 22.8689 11.3949C22.87 8.35232 21.6867 5.49152 19.5369 3.33933ZM11.4822 20.8582H11.4784C9.78023 20.8576 8.11456 20.4013 6.66146 19.539L6.31592 19.334L2.73393 20.2735L3.69005 16.7812L3.465 16.4231C2.51766 14.9163 2.01732 13.1746 2.01806 11.3864C2.02009 6.16833 6.26577 1.92312 11.4861 1.92312C14.0139 1.9239 16.3902 2.90966 18.177 4.69855C19.9638 6.48744 20.9473 8.86528 20.9463 11.3941C20.9442 16.6126 16.6986 20.8582 11.4822 20.8582Z" fill="#70748A"/>
<path fill-rule="evenodd" clip-rule="evenodd" d="M16.6735 13.7702C16.389 13.6278 14.9902 12.9396 14.7294 12.8446C14.4686 12.7496 14.2789 12.7022 14.0893 12.987C13.8996 13.2718 13.3544 13.9127 13.1884 14.1026C13.0224 14.2924 12.8564 14.3163 12.572 14.1737C12.2875 14.0313 11.3707 13.7309 10.284 12.7616C9.43819 12.0072 8.86722 11.0755 8.70119 10.7906C8.53526 10.5058 8.68354 10.3519 8.82599 10.21C8.95397 10.0825 9.11053 9.8777 9.25279 9.71154C9.39502 9.54547 9.44244 9.42668 9.53728 9.23694C9.63213 9.04702 9.58475 8.88086 9.51357 8.7385C9.44244 8.59609 8.87346 7.19568 8.63639 6.62592C8.40538 6.07122 8.17085 6.14637 7.99618 6.13755C7.83048 6.12927 7.64056 6.12756 7.45091 6.12756C7.26127 6.12756 6.95297 6.19879 6.69224 6.48356C6.43146 6.76842 5.69641 7.45679 5.69641 8.85705C5.69641 10.2575 6.71591 11.6104 6.85818 11.8002C7.0004 11.9902 8.8644 14.8638 11.7185 16.0962C12.3973 16.3894 12.9272 16.5645 13.3404 16.6955C14.022 16.9121 14.6422 16.8815 15.1324 16.8083C15.6791 16.7266 16.8158 16.12 17.0528 15.4555C17.2899 14.7909 17.2899 14.2211 17.2188 14.1025C17.1477 13.9839 16.958 13.9127 16.6735 13.7702Z" fill="#70748A"/>
</svg>
